<svg xmlns="http://www.w3.org/2000/svg" viewBox="0 0 108.77 245.11"><defs><style>.cls-1{fill:#2c2c2c;}.cls-2{fill:none;stroke:#2c2c2c;stroke-miterlimit:10;stroke-width:2px;}</style></defs><title>vectors-tarot-suits</title><g id="Draw_Layer" data-name="Draw Layer"><path class="cls-1" d="M83.8,190.21l0,.11a.61.61,0,0,1,0,.12A2.29,2.29,0,0,0,83.8,190.21Z"/><path class="cls-1" d="M95.75,101.83c-.37-6-1-12-1.84-18A169.11,169.11,0,0,0,85.22,49q-1.62-4.29-3.59-8.44a83.79,83.79,0,0,0-4.18-7.61c-.68-1.12-1.45-2.18-2.21-3.24s-1.73-2.29-2.67-3.37a36.22,36.22,0,0,0-6.23-5.7,21.17,21.17,0,0,0-3.69-2.13,19.8,19.8,0,0,0-4.31-1.42,18.6,18.6,0,0,0-3.56-.35,18.9,18.9,0,0,0-2.38.16,45.41,45.41,0,0,0-5.78.77,23.74,23.74,0,0,0-5.53,2.07,34.38,34.38,0,0,0-8,5.94l-.13.1c-.24.24-.48.47-.71.72-.44.44-.86.9-1.28,1.36-1,1.06-1.86,2.15-2.72,3.28a67.49,67.49,0,0,0-4.7,7c-1.47,2.52-2.76,5.12-4,7.76s-2.3,5.32-3.31,8a145.61,145.61,0,0,0-5,16.66c-1.42,5.85-2.49,11.76-3.32,17.7-.85,6.17-1.35,12.38-1.66,18.59-.27,5.43-.31,10.86-.2,16.3a216.45,216.45,0,0,0,3.65,35.24,161.05,161.05,0,0,0,5.66,22.08l0,.06c.58,1.69,1.19,3.36,1.84,5s1.35,3.53,2.15,5.24c1.1,2.46,2.31,4.87,3.61,7.24a65.41,65.41,0,0,0,4.17,6.69h0a45.7,45.7,0,0,0,9.93,10.39l.07,0,.18.12c.64.45,1.28.89,2,1.29s1.31.75,2,1.1a20.82,20.82,0,0,0,2,.92c.34.13.69.26,1,.37l.1,0a23,23,0,0,0,2.74.72c.58.12,3.13.1,5.16.08.58.07,1.16.12,1.73.14a15.66,15.66,0,0,0,2.65-.17,19.9,19.9,0,0,0,2.83-.63,25.72,25.72,0,0,0,3.2-1.22.91.91,0,0,0,.37-.33q.59-.27,1.14-.57a23.19,23.19,0,0,0,4.1-2.93,41.51,41.51,0,0,0,6-6.61,62,62,0,0,0,5.07-8.09c1.57-3,3-6,4.27-9.1a124,124,0,0,0,5.47-16.39q2.37-8.84,3.87-17.87c1-6.07,1.72-12.19,2.23-18.32s.83-12.23.9-18.36Q96.29,110.59,95.75,101.83Zm-53,114.23A24.64,24.64,0,0,1,39.3,214l-.39-.28,0,0a39.89,39.89,0,0,1-6.25-6c-.52-.65-1-1.3-1.55-2s-1-1.43-1.56-2.15l0,0c-1.25-1.82-2.43-3.68-3.52-5.59s-2.22-4.15-3.2-6.27l-.37-.79.15.3c-.86-1.88-1.67-3.79-2.45-5.7S18.68,181.7,18,179.8c0-.08-.05-.15-.07-.23a169,169,0,0,1-6.63-27.95c0-.32-.09-.65-.14-1,0,.11,0,.22.05.34q-.6-4.17-1-8.35c-.28-2.78-.49-5.56-.67-8.34-.35-5.24-.5-10.47-.5-15.72,0-5.07.2-10.15.54-15.22.38-5.67,1.05-11.34,1.86-17A190.23,190.23,0,0,1,15.76,65.3q1.3-4.89,3-9.7c1.15-3.31,2.42-6.57,3.88-9.77l-.05.1.09-.18.05-.13,0,.09a74.46,74.46,0,0,1,9.94-16.42c.39-.46.78-.92,1.19-1.37l.69-.73.15-.17a33.72,33.72,0,0,1,4.54-4c.82-.57,1.65-1.1,2.53-1.6a36.81,36.81,0,0,0-6.2,6,60.15,60.15,0,0,0-5.2,7.35C29.65,35.86,29,37,28.4,38.1s-1.32,2.56-2,3.84-1.18,2.57-1.73,3.87C24,47.4,23.39,49,22.8,50.65q-1.44,3.95-2.62,8-1.26,4.25-2.25,8.55c-.68,3-1.26,5.93-1.8,8.92-1.1,6-2,12.08-2.59,18.16-.48,4.73-.77,9.49-.92,14.25s-.2,9.34-.12,14A242.32,242.32,0,0,0,14.86,151c.8,5.92,1.83,11.8,3.16,17.62A151.45,151.45,0,0,0,22.61,185a89.86,89.86,0,0,0,7.15,15.65c.34.58.7,1.15,1,1.72s.76,1.22,1.15,1.82c.78,1.18,1.61,2.34,2.47,3.47a42.61,42.61,0,0,0,5.53,6,30.4,30.4,0,0,0,3.83,2.91C43.43,216.39,43.06,216.23,42.71,216.06Zm50.72-88.63c0,1.31-.08,2.61-.13,3.91s-.14,2.69-.2,4c-.12,2.73-.39,5.46-.66,8.17s-.59,5.36-1,8c-1.84,13.68-4.93,27.25-10.29,40a70.72,70.72,0,0,1-8.61,15.13,39,39,0,0,1-5.26,5.63c-.4.32-.79.65-1.19,1a29.26,29.26,0,0,1-3.91,2.52,1.45,1.45,0,0,0-.59.16l-.46.2a18.3,18.3,0,0,1-3.4,1,23.25,23.25,0,0,1-2.35.19,18.62,18.62,0,0,1-2.58-.16,19,19,0,0,1-4.17-1.14,23.37,23.37,0,0,1-4.78-2.86A37,37,0,0,1,38,207.09a60.14,60.14,0,0,1-4.39-6.76c-.71-1.26-1.35-2.58-2-3.88s-1.24-2.67-1.83-4A163.57,163.57,0,0,1,23,172.56a184.7,184.7,0,0,1-4.3-22,239.57,239.57,0,0,1-1.81-31.79c0-5,.17-10.09.54-15.11.42-5.57.93-11.14,1.66-16.68.46-3.35,1-6.69,1.65-10,.68-3.52,1.5-7,2.4-10.49s1.88-6.89,3-10.29c1.05-3.2,2.26-6.34,3.55-9.45,1.14-2.68,2.36-5.34,3.75-7.9a59,59,0,0,1,4.91-7.66,38.22,38.22,0,0,1,6.12-6.27,23.74,23.74,0,0,1,4.6-2.73,18.16,18.16,0,0,1,3.77-1,17.9,17.9,0,0,1,3.94,0,20.21,20.21,0,0,1,4.11,1.14,25.67,25.67,0,0,1,4.93,2.91,39.31,39.31,0,0,1,6.41,6.61,73.92,73.92,0,0,1,8.82,15.74,136.92,136.92,0,0,1,6.58,20.36A206.48,206.48,0,0,1,91.49,89a247,247,0,0,1,2,30.75C93.5,122.32,93.48,124.88,93.43,127.43Z"/><path class="cls-1" d="M14.89,151.24l0-.26a2,2,0,0,1,0-.26C14.84,150.9,14.87,151.07,14.89,151.24Z"/><path class="cls-1" d="M22.66,45.75l0,.08.06-.12Z"/><line class="cls-2" x1="42.18" y1="64.26" x2="62.74" y2="182.21"/><line class="cls-2" x1="81.28" y1="121.96" x2="42.18" y2="64.77"/><line class="cls-2" x1="38.81" y1="145.45" x2="68.98" y2="49.96"/><line class="cls-2" x1="38.81" y1="145.45" x2="81.45" y2="121.45"/><line class="cls-2" x1="62.74" y1="181.7" x2="68.98" y2="50.47"/></g></svg>