<svg xmlns="http://www.w3.org/2000/svg" viewBox="0 0 709.28 147.06"><defs><style>.cls-1,.cls-2{fill:none;stroke:#2c2c2c;stroke-miterlimit:10;}.cls-1{stroke-width:2px;}</style></defs><title>vectors-tarot-suits</title><g id="Draw_Layer" data-name="Draw Layer"><rect class="cls-1" x="603.1" y="11.82" width="13.49" height="117.76"/><rect class="cls-1" x="675.36" y="56.54" width="19.34" height="28.33" rx="2.83"/><path class="cls-1" d="M674.81,63.63c-7.32-2.26-18.09-3.69-30.09-3.69-11,0-20.89,1.19-28.1,3.12l-.14,15.26c7.22,1.94,17.21,3.15,28.24,3.15,12,0,22.77-1.43,30.09-3.69Z"/><path class="cls-2" d="M601.9,93.27V92c0-.51,0-1,0-1.54-24.84-1-49.7-1.66-74.55-2.37q-41.72-1.18-83.44-2.31Q390.46,84.35,337,83q-52.42-1.29-104.84-2.55-24.65-.61-49.27-1.26c-17.67-.45-35.34-.75-53-1s-35.09-.4-52.63-.71C68.61,77.32,60,77.13,51.33,77c-5.28-.09-10.55-.23-15.82-.38L28,70.71l7.52-5.91c5.27-.14,10.54-.29,15.82-.38,8.64-.13,17.28-.33,25.92-.47,17.54-.31,35.09-.45,52.63-.71s35.34-.56,53-1q24.63-.61,49.27-1.26,52.41-1.3,104.84-2.54,53.46-1.32,106.9-2.79,41.73-1.12,83.44-2.31c24.85-.71,49.71-1.32,74.55-2.37,0-.51,0-1,0-1.54V47c-14.4.13-28.8.42-43.21.72q-26.4.55-52.8,1.17Q453,50.09,400,51.41q-16,.38-32.06.79-37.29.94-74.58,2-50.94,1.36-101.88,2.61c-13.14.33-26.27.66-39.4,1.12q-22.11.78-44.2,1.61C94,60,80,60.57,66.1,61L47,61.61c-2.37.08-9.66.13-12,.19L24.6,70.56,35,79.62c2.38,0,9.67.1,12,.18l19.08.61c13.94.43,27.87,1,41.8,1.49q22.1.82,44.2,1.61c13.13.46,26.26.79,39.4,1.12q50.94,1.28,101.88,2.62,37.29,1,74.58,2,16,.41,32.06.79,53,1.27,105.88,2.5,27.9.61,52.8,1.16c14.41.3,28.81.59,43.21.72V93.27Z"/><polygon class="cls-2" points="251.23 69.74 603.36 63.63 603.36 77.78 251.23 69.74"/></g></svg>