<svg xmlns="http://www.w3.org/2000/svg" viewBox="0 0 202.64 201.96"><defs><style>.cls-1{fill:#2c2c2c;}.cls-2{fill:none;stroke:#2c2c2c;stroke-miterlimit:10;stroke-width:2px;}</style></defs><title>vectors-tarot-suits</title><g id="Draw_Layer" data-name="Draw Layer"><path class="cls-1" d="M83.64,1.41A95.32,95.32,0,0,0,61.37,8,100.71,100.71,0,0,0,25,34.48,103.52,103.52,0,0,0,3.84,73.3a101.16,101.16,0,0,0-2.38,44.88,99.17,99.17,0,0,0,17.43,41.46A102.82,102.82,0,0,0,52.1,189.18a101.59,101.59,0,0,0,43.2,12.6,98.26,98.26,0,0,0,43-7.17c1.27-.51,2.52-1.06,3.77-1.63a2.58,2.58,0,0,0,1.29-.28c1.6-.74,3.17-1.51,4.71-2.36s3.17-1.82,4.74-2.76a106.76,106.76,0,0,0,9-6,103.52,103.52,0,0,0,8.7-7.2,95.72,95.72,0,0,0,7.73-8.13,102.73,102.73,0,0,0,20.71-39,109.34,109.34,0,0,0,3.46-22c.05-.85.08-1.69.12-2.54s.11-1.72.1-2.58c0-2-.11-4-.21-5.94a102.63,102.63,0,0,0-1.28-11.32,96.53,96.53,0,0,0-6.44-21.76,99.63,99.63,0,0,0-44.71-49,101.55,101.55,0,0,0-10.06-4.61,102.62,102.62,0,0,0-10.7-3.6A110.14,110.14,0,0,0,106.64.18q-3-.18-5.93-.18A107.32,107.32,0,0,0,83.64,1.41ZM114,5.56l-.3,0,.3,0,.32,0-.31,0a93.85,93.85,0,0,1,22.55,6.21,102.87,102.87,0,0,1,22.16,12.94,104.52,104.52,0,0,1,18,18,103,103,0,0,1,12.67,21.78A101.24,101.24,0,0,1,196.1,89c.26,2,.48,4,.63,6,.09,1.08.12,2.15.16,3.23s0,2.45.12,3.67c0,.39,0,.82,0,1.22,0,.56,0,1.11,0,1.67,0,1.19-.07,2.37-.14,3.55-.12,2.09-.35,4.19-.62,6.27a100.85,100.85,0,0,1-6.73,24.53A98.39,98.39,0,0,1,177.36,160a104.34,104.34,0,0,1-18,18.06,100,100,0,0,1-8.64,5.93c-1.43.87-2.91,1.66-4.41,2.41q-2.55,1.29-5.15,2.51a1.79,1.79,0,0,0-.67.59l-.89.39a102.48,102.48,0,0,1-12.43,4.29,100.11,100.11,0,0,1-12.74,2.56,103.48,103.48,0,0,1-26.55,0,94.95,94.95,0,0,1-45.6-19.07,100,100,0,0,1-17.45-17.5A96.91,96.91,0,0,1,5.6,114a100.84,100.84,0,0,1,0-25.57,101.79,101.79,0,0,1,6.92-25.35,98,98,0,0,1,12.08-20.5A102,102,0,0,1,42,25.14,100.8,100.8,0,0,1,63.91,12.33,102.29,102.29,0,0,1,88.63,5.61,98.09,98.09,0,0,1,114,5.56ZM63.9,12.33l-.42.18.42-.18Zm94.88,12.41.27.21-.27-.21ZM24.9,42.21c-.09.11-.17.22-.26.32.09-.11.17-.22.26-.32ZM12.5,63.15l-.19.44c.07-.15.13-.29.19-.44Zm176.71.78c.06.15.12.3.19.45-.07-.15-.13-.3-.19-.45ZM5.69,87.86a2.51,2.51,0,0,1,0,.27,2.51,2.51,0,0,0,0-.27Zm190.42,1.19.06.42-.06-.42Zm-36.47,88.79-.29.21.29-.21Zm-117.17,0,.16.13-.16-.13Zm116.87.21-.14.12.14-.12ZM114,5.56h0Z"/><line class="cls-2" x1="46.34" y1="52.11" x2="108.64" y2="170.06"/><line class="cls-2" x1="164.81" y1="109.81" x2="46.34" y2="52.62"/><line class="cls-2" x1="36.13" y1="133.3" x2="127.54" y2="37.81"/><line class="cls-2" x1="36.13" y1="133.3" x2="165.32" y2="109.3"/><line class="cls-2" x1="108.64" y1="169.55" x2="127.54" y2="38.32"/></g></svg>