<svg xmlns="http://www.w3.org/2000/svg" viewBox="0 0 402.89 44.43"><defs><style>.cls-1{fill:#2c2c2c;}</style></defs><title>vectors-tarot-suits</title><g id="Draw_Layer" data-name="Draw Layer"><path class="cls-1" d="M356.33,4.61c-4.13.12-8.24.48-12.34.94-3.93.44-7.79,1.22-11.68,1.86-8.18,1.35-16.42,2.39-24.64,3.49l-4.73.66c-1.55.21-3.09.36-4.64.51q-3,.23-6.07.35c-2,.08-4,.13-6,.25-4.15.25-8.27.73-12.41,1.1s-8.06.59-12.08.9-7.83.64-11.76.71c-4.17.07-8.34.07-12.52,0s-8.16-.36-12.23-.67c-2-.14-4-.35-6-.53s-3.9-.2-5.84-.21a99.32,99.32,0,0,0-12.31.73c-3.36.41-6.69,1.13-10,1.63-3.6.53-7.2,1-10.79,1.64s-6.93,1.37-10.4,2.06c-1.75.36-3.51.68-5.28,1-1.62.28-3.27.44-4.91.6l.4,0-2.1.12c-.65,0-1.31,0-2,0-.87,0-1.76,0-2.64-.07l-1.12,0c-2.59-.09-5.18-.18-7.77-.3l-4.22-.18C139,21,137.72,21,136.48,21a33.46,33.46,0,0,0-4,.24c-.66.09-1.3.19-1.95.31a20,20,0,0,0-2.29.67,1.51,1.51,0,0,0-.87.69h-1.84c-1.69,0-3.39.11-5.09.2-.69,0-1.39.08-2.08.15s-1.32.17-2,.24a20,20,0,0,1-2.57,0c-1-.05-2.05-.14-3.08-.22a15.22,15.22,0,0,0-1.79-.09c-.77,0-1.55.11-2.32.18-1.19.12-2.36.31-3.55.44-1.48.13-3,.14-4.47.17s-2.93,0-4.4,0c-2.9-.05-5.81,0-8.71-.05-1.51,0-3-.06-4.53,0s-3.12.11-4.67.23c-3.14.26-6.26.67-9.4,1-2.69.25-5.4.41-8.1.6-1.4.1-2.81.18-4.21.32-1.58.16-3.14.38-4.72.54a43.82,43.82,0,0,1-6.17.17c-1.7-.09-3.39-.23-5.09-.33-1.95-.12-3.91,0-5.86,0a36.15,36.15,0,0,1-6.06-.38c-.68-.13-1.36-.29-2-.4a11.33,11.33,0,0,0-2.6-.1,37.15,37.15,0,0,0-5.35.81,43.92,43.92,0,0,0-5.17,1.42c-.42.15-.84.32-1.25.49a4.37,4.37,0,0,0-1,.59,4.07,4.07,0,0,0-.63.68,1.89,1.89,0,0,0-.3.9,3,3,0,0,0,.06.85,3,3,0,0,0,.37.87,6.71,6.71,0,0,0,.64.87,8.13,8.13,0,0,0,2,1.65A15.57,15.57,0,0,0,14,35.74c.89.35,1.79.69,2.68,1s1.61.73,2.44,1C22.79,39.13,26.74,39,30.63,39s7.51.23,11.26.39c3.53.16,7,.32,10.58.44,3.76.13,7.53.21,11.29.23s7.8.18,11.7.18c1.93,0,3.86,0,5.79,0,2.13,0,4.26,0,6.39-.06,3.86-.07,7.73-.29,11.59-.44,2-.07,4.06,0,6.09,0s3.94.06,5.9.06c4,0,7.91-.05,11.87,0s7.86.41,11.79.63,7.86.33,11.79.34c1.86,0,3.71-.08,5.56-.24,2.1-.18,4.19-.53,6.27-.91,3.8-.67,7.6-1.44,11.45-1.84l.64-.06c3.78-.35,7.59-.68,11.39-.65,4,0,8,.28,12,.43,7.49.28,15,.53,22.49.4,3.91-.07,7.81,0,11.72.06,3.75,0,7.5-.06,11.25,0,4.05.12,8.1.27,12.14.6,3.83.32,7.62,1,11.47,1.06,2,0,4-.08,5.95-.19l6-.31c2-.09,4.06-.16,6.09-.23s3.79-.11,5.68-.26,4-.35,6-.54,4.08-.31,6.13-.37,4.06,0,6.09,0,4,.07,6,.12c4,.11,8,.34,12,.53s8.07.31,12.11.45c3.82.14,7.65.39,11.47.48s7.63.16,11.44.09c1.94,0,3.88-.11,5.82-.16s4-.09,6-.23,4-.4,6-.72A35.54,35.54,0,0,0,381,37.13,21.26,21.26,0,0,0,386,34.9a36.77,36.77,0,0,0,4.41-3.47,16.4,16.4,0,0,0,4.3-5.15A19.24,19.24,0,0,0,396.11,21a8,8,0,0,0-.37-4,11.28,11.28,0,0,0-1.51-2.66,27.4,27.4,0,0,0-3.38-3.52c-.6-.56-1.2-1.13-1.85-1.64a11.44,11.44,0,0,0-3.24-1.71A30.48,30.48,0,0,0,380,6.2c-2-.32-3.95-.51-5.94-.72s-4-.39-5.95-.56c-1.65-.14-3.31-.23-5-.29q-3.42-.12-6.82,0Zm6.29,3.67c3.14.07,6.28.36,9.41.65,3,.28,5.92.6,8.86,1.05a22.88,22.88,0,0,1,5,1.4,10.23,10.23,0,0,1,1.59,1.06,30,30,0,0,1,4.31,4.2,11.22,11.22,0,0,1,1,1.73c.06.21.11.43.15.65a11.59,11.59,0,0,1-.13,2.35A17.76,17.76,0,0,1,391.72,25a12.33,12.33,0,0,1-1.08,1.65A30.47,30.47,0,0,1,388,29.3c-1,.88-2,1.73-3,2.53a17.8,17.8,0,0,1-3.05,1.69,45.72,45.72,0,0,1-10.55,2.12c-3.94.34-7.9.3-11.85.36s-7.67-.07-11.5-.23-7.41-.49-11.12-.74c-4.06-.26-8.13-.42-12.2-.64-3.89-.22-7.78-.5-11.67-.65-2.06-.08-4.12-.15-6.19-.19s-4.07-.12-6.1-.11-4.11.06-6.16.18-4,.32-6,.48c-3.92.31-7.87.31-11.8.45s-8,.42-12.06.53a44.91,44.91,0,0,1-5.91-.3c-1.82-.19-3.62-.52-5.44-.74-4-.49-8.1-.76-12.15-1-3.73-.19-7.45-.19-11.18-.28-4-.1-7.94-.25-11.91-.28-1.8,0-3.61,0-5.41,0s-3.7,0-5.55-.09c-3.89-.11-7.77-.26-11.66-.38-1.54-.05-3.07-.11-4.6-.18-2.29-.08-4.59-.17-6.89-.24-2.78-.07-5.54.06-8.31.24-3,.2-5.92.5-8.87.87-2.59.32-5.17.87-7.73,1.38s-5.19,1-7.82,1.3c-3.71.27-7.42.25-11.14.17-4.12-.09-8.23-.29-12.35-.47C123.88,35,120,35,116.2,35c-4,.06-8,.1-12,0s-7.82.19-11.73.38-8.06.23-12.09.28-7.77,0-11.66,0-7.61-.08-11.41-.17c-5.82-.13-11.64-.32-17.46-.48-2.87-.08-5.73-.17-8.6-.1-1.56,0-3.11.14-4.66.19A28.54,28.54,0,0,1,22,34.91a18.11,18.11,0,0,1-1.9-.46c-.78-.23-1.54-.54-2.3-.82-1.56-.56-3.19-1-4.71-1.66a12.74,12.74,0,0,1-1.4-.89c-.17-.17-.34-.34-.5-.52a11.27,11.27,0,0,1,1.53-.73,40.44,40.44,0,0,1,9.33-2.24,11.56,11.56,0,0,1,2.63.08c1.12.2,2.23.42,3.36.53a35.33,35.33,0,0,0,4,.17c2.46,0,4.9-.11,7.35,0s4.64.31,7,.26c2.9-.07,5.76-.53,8.64-.83s5.57-.4,8.36-.56c1.37-.08,2.73-.16,4.09-.29,1.53-.15,3-.33,4.57-.48l-.27,0c3-.29,6.07-.51,9.12-.59,1.5,0,3,0,4.52,0s2.77,0,4.16,0c2.93,0,5.87.15,8.8.13,1.5,0,3,0,4.5-.13s2.73-.32,4.09-.46h-.13l.15,0h0c.55-.05,1.11-.09,1.66-.12a13.57,13.57,0,0,1,1.8.09l2.88.26c.74.06,1.49.11,2.24.13a20.83,20.83,0,0,0,2.61-.19c1.24-.1,2.47-.14,3.71-.17,1.53,0,3.07-.05,4.6,0l2.1.06c1,0,2,0,2.94,0,2.16-.12,4.32-.31,6.48-.49a1.33,1.33,0,0,0,.87-.33,1.18,1.18,0,0,0,.39-.8c1.72.09,3.44.2,5.16.3q2.88.16,5.76.29c.89.05,1.77.09,2.66.12s2,.11,3,.11,2.1,0,3.16-.06,2.09-.15,3.14-.25c1.9-.18,3.81-.5,5.69-.84,4.07-.76,8.12-1.6,12.2-2.35,3.87-.71,7.79-1.19,11.68-1.78,1.82-.28,3.63-.62,5.44-.94,2-.36,4.07-.67,6.12-.93s3.79-.3,5.7-.39,3.91-.09,5.86-.06c4.07,0,8.13.52,12.19.8s8.12.43,12.19.53,8,.08,12-.07,8.05-.5,12.07-.78,8.29-.54,12.43-.91,8-.81,12-1c2-.08,4-.12,5.95-.22,2.19-.1,4.37-.25,6.55-.47,3.57-.34,7.12-.89,10.68-1.33,3.76-.46,7.51-.95,11.26-1.44s7.52-1,11.26-1.57,7.36-1.2,11.07-1.6a156.57,156.57,0,0,1,18.12-.69ZM203.19,17.47l-.26,0,.26,0Zm-86.94,6-.18,0,.18,0Zm266,9.91-.1,0,.1,0ZM103,23.74h0ZM11.34,30.45l-.14.1h0l.14-.09Zm-.16.1h0Zm0,0,.08.1-.08-.1ZM107,25.41h0Z"/></g></svg>