<svg xmlns="http://www.w3.org/2000/svg" viewBox="0 0 756.77 62.81"><defs><style>.cls-1{fill:#2c2c2c;}</style></defs><title>vectors-tarot-suits</title><g id="Draw_Layer" data-name="Draw Layer"><path class="cls-1" d="M697.58,8.91c-3.76-.31-7.53-.54-11.31-.64s-7.43-.07-11.15-.11-7.48-.08-11.22-.06-7.31.16-11,.27q-5.21.17-10.39.28c-7.13.17-14.27.48-21.36,1.25-3.78.4-7.54.89-11.3,1.36-3.56.44-7.12.82-10.69,1.21-7.61.82-15.22,1.66-22.79,2.78-3.46.51-6.9,1.13-10.34,1.73q-5.64,1-11.31,1.81c-3.77.54-7.56,1-11.33,1.57S536,21.45,532.27,22s-7.75,1.09-11.63,1.62c-3.61.49-7.22,1-10.84,1.46q-11.3,1.43-22.64,2.43-5.69.49-11.36,1c-3.62.34-7.24.7-10.86,1-1.39.1-2.78.14-4.17.21l-3.92.16h.36c-5.8.21-11.59.43-17.38.79s-11.37.75-17.07,1c-3.82.11-7.65.18-11.48.25s-7.62.16-11.42.18-7.31,0-11-.14-7.49-.34-11.23-.49c-7.5-.33-15-.39-22.52-.38-3.75,0-7.49.05-11.23.17s-7.26.28-10.89.26c-1.79,0-3.58,0-5.37-.1q-3-.13-6-.35c-3.56-.26-7.13-.53-10.71-.65-3.77-.12-7.54-.18-11.31-.3s-7.43-.25-11.15-.39c-3.49-.13-7-.34-10.46-.69-3.74-.38-7.48-.81-11.21-1.26-1.66-.21-3.32-.43-5-.61s-3.4-.34-5.1-.51c-3.78-.37-7.55-.76-11.33-1.1-3.39-.3-6.79-.61-10.18-.93s-6.68-.62-10-.82c-3.74-.22-7.47-.34-11.2-.45s-7.31-.2-11-.32c-3.41-.12-6.83-.25-10.25-.31-3.87-.06-7.74-.1-11.62-.26-3.55-.14-7.1-.44-10.65-.61s-7.1-.2-10.65-.42-6.91-.48-10.37-.65l-4.64-.19c-2-.09-4.07-.2-6.1-.35-1.68-.11-3.37-.27-5.05-.41q-3-.24-6-.45c-3.56-.25-7.12-.44-10.68-.71-3.37-.25-6.72-.54-10.09-.73-3.68-.21-7.37-.27-11-.22s-7.5.22-11.24.42c-3.37.17-6.72.61-10.08.75h-.37c-2.07,0-4.13,0-6.2-.08-1.89-.05-3.78-.05-5.67-.09s-3.9-.15-5.85-.09-4.13.23-6.18.36c-4,.26-7.93.69-11.89,1.07-4.15.39-8.28.86-12.44,1.09-2.17.08-4.35.09-6.52.14-1.08,0-2.17,0-3.25.13a13.24,13.24,0,0,0-2.64.58A12.12,12.12,0,0,0,11,23.17,4.53,4.53,0,0,0,8.79,26a2.28,2.28,0,0,0-.1.86,6.47,6.47,0,0,0,.05.76A6.94,6.94,0,0,0,9,28.76a8.7,8.7,0,0,0,.85,2.13A8,8,0,0,0,11,32.41a6.84,6.84,0,0,0,1.48,1.15A19.84,19.84,0,0,0,17,35.47a25.14,25.14,0,0,0,2.83.64c1.25.22,2.53.29,3.79.46,2.32.31,4.62.71,6.91,1.22,1.52.36,3,.72,4.6.93.39.06.78.1,1.17.13v0a1.45,1.45,0,0,0,.33,1.07,1.38,1.38,0,0,0,1,.53c1.91,0,3.84,0,5.74.09,1.45.09,2.89.26,4.33.46,1,.14,2,.3,2.94.43s2,.29,3,.5a18.15,18.15,0,0,1,2.6.9,8.84,8.84,0,0,0,3,.68c3.42.16,6.84-.26,10.25-.43,1.46,0,2.9,0,4.35.08,1.77.1,3.53.12,5.3.13q1.42,0,2.85,0c.28,0,.55,0,.82,0a126.68,126.68,0,0,0,12.59-1.46c1.88-.3,3.75-.61,5.64-.86,2.11-.28,4.23-.46,6.36-.56.89,0,1.77,0,2.66,0s1.67.15,2.5.26c1.52.21,3,.63,4.53,1a24.14,24.14,0,0,0,4,.46c1.74.1,3.47.1,5.2.08,3.64,0,7.27-.3,10.89-.54s7.36-.5,11-.64c1.64-.06,3.29-.11,4.93-.12,1.93,0,3.87,0,5.8.06,3.64.09,7.28.35,10.89.75s7,.92,10.47,1.56,6.79,1.33,10.21,1.84c3.73.56,7.47,1,11.2,1.49,3.49.45,7,1,10.44,1.47,3.8.57,7.6,1.18,11.4,1.72q5.37.78,10.76,1.37T245,52.19c3.48.32,7,.67,10.46.89,7.56.47,15.15.41,22.72.26s15-.17,22.56,0c3.59.07,7.19.22,10.77.32s7.27.19,10.89.35c3.43.15,6.85.44,10.27.75,3.69.32,7.37.62,11.07.82,3.43.18,6.86.31,10.29.46,3.62.17,7.25.3,10.88.35,1.64,0,3.29,0,4.93,0l5.81.09c3.8.08,7.61.16,11.4.16,7.62,0,15.23-.65,22.83-1.07,3.53-.2,7.06-.43,10.59-.73,3.73-.31,7.48-.6,11.22-.84s7.19-.47,10.78-.79c3.43-.3,6.85-.75,10.26-1.15,3.77-.43,7.54-.81,11.32-1.1,3.61-.28,7.23-.54,10.84-.86,7.24-.64,14.45-1.42,21.67-2.13l9.38-.92c3.23-.32,6.46-.7,9.69-1.08,6.2-.73,12.4-1.37,18.6-2.15,3-.38,6.08-.76,9.13-1,3.29-.32,6.59-.53,9.89-.7,3.09-.17,6.18-.32,9.27-.51s6.09-.38,9.14-.51c6.13-.18,12.27-.33,18.41-.3,3.08,0,6.15.15,9.22.16s6.44-.09,9.66-.2,6.68-.23,10-.43c3.11-.18,6.21-.41,9.31-.63s6.31-.48,9.47-.72q5.24-.39,10.48-.61h.1c3.65-.12,7.29-.23,10.93-.28s7.4,0,11.1,0,7.64.11,11.46.06,7.76-.15,11.64-.29,7.76-.28,11.64-.38c3.69-.08,7.36-.21,11-.47a90.34,90.34,0,0,0,10.49-1.47c1.62-.32,3.21-.75,4.8-1.2a43.09,43.09,0,0,0,5-1.79l.74-.35c.32-.16.65-.3,1-.48a24.93,24.93,0,0,0,2.17-1.26A12.71,12.71,0,0,0,743.13,28c.23-.27.44-.54.66-.81a8.58,8.58,0,0,0,.79-1.29c.16-.3.3-.59.45-.9a13.56,13.56,0,0,0,.64-1.75,7.87,7.87,0,0,0,.3-1.52,5.67,5.67,0,0,0-.09-1.48c-.09-.31-.18-.62-.28-.93l-.27-.47a2.45,2.45,0,0,0-.57-.72,5.9,5.9,0,0,0-2.48-1.41,25.89,25.89,0,0,0-3.61-.83c-1.48-.27-3-.5-4.47-.73-2.79-.44-5.58-.82-8.34-1.43l-3.53-.89c-1.42-.36-2.86-.66-4.29-1s-2.94-.66-4.42-.95c-1.78-.36-3.58-.64-5.37-.9s-3.81-.49-5.72-.67c-1.65-.16-3.3-.3-4.95-.43Zm-51.27,2.62c3.31-.06,6.62-.16,9.93-.24,3.52-.07,7-.1,10.58-.07s7,.08,10.53.13c3.67.05,7.34.05,11,.21,3.49.16,7,.43,10.46.74s6.86.64,10.27,1.14c1.66.25,3.32.52,5,.84,1.33.26,2.65.57,4,.88,1.56.37,3.11.76,4.67,1.15,1.82.46,3.66.83,5.52,1.16,2.19.38,4.38.7,6.57,1.05,1.86.31,3.74.6,5.59,1l.74.2a7.84,7.84,0,0,1,1.08.43l.36.26.11.1-.21-.34a2.66,2.66,0,0,1,.47,1l-.12-.38a3.79,3.79,0,0,1,.12,1.06c0-.14,0-.27,0-.41a4.36,4.36,0,0,1-.08.81,12.36,12.36,0,0,1-.46,1.42,11.84,11.84,0,0,1-.54,1.2,8.6,8.6,0,0,1-1,1.39,13.3,13.3,0,0,1-1.24,1.13,13.69,13.69,0,0,1-1.16.84,26.8,26.8,0,0,1-3.51,1.86c-.68.29-1.36.58-2,.84s-1.44.52-2.17.76c-1.61.47-3.22.92-4.87,1.26q-2.77.56-5.56,1c-1.95.29-3.91.43-5.87.58-1.77.13-3.54.2-5.31.27h0c-3.63.1-7.26.18-10.9.29-4,.12-8,.26-12,.34-7.51.16-15-.11-22.51-.15-3.93,0-7.86,0-11.79.11-3.54.08-7.08.19-10.61.4-3.78.22-7.55.5-11.33.75-3.54.24-7.08.44-10.62.62l-2.63.13c-7.23.26-14.48.43-21.71.18-3.43-.12-6.86-.22-10.29-.23s-7.07.06-10.6.12-7,.26-10.55.45c-3.86.23-7.72.41-11.59.59-3.7.17-7.4.39-11.09.77s-7.57.84-11.35,1.27-7.6.79-11.4,1.21-7.65.89-11.49,1.27c-3.61.38-7.22.69-10.84,1-3.82.37-7.63.76-11.45,1.14-3.41.34-6.81.65-10.22.95-3.61.32-7.23.58-10.84.87-3.78.3-7.55.69-11.31,1.14-3.42.39-6.83.85-10.26,1.16-4,.36-8.05.64-12.09.9s-8.16.65-12.24,1c-3.8.32-7.6.51-11.4.73-4.24.25-8.48.51-12.73.69-3.64.1-7.27.12-10.91,0s-7.25-.18-10.88-.24-7.4-.06-11.11-.19c-3.53-.12-7.05-.31-10.58-.46s-7-.27-10.54-.49c-3.66-.24-7.32-.54-11-.79-3.36-.23-6.72-.37-10.08-.45l-11.12-.27c-7.46-.2-14.91-.21-22.37-.1-3.76.06-7.52.19-11.28.24-3.92.06-7.84.08-11.76,0-1.58,0-3.16-.08-4.73-.18-1.95-.12-3.89-.28-5.84-.44-3.48-.3-6.95-.62-10.42-1s-6.9-.77-10.34-1.23c-3.69-.5-7.37-1.06-11.05-1.64q-5.76-.93-11.53-1.8c-3.53-.54-7.07-1-10.6-1.54s-7.3-1.06-10.92-1.74c-3.42-.64-6.82-1.32-10.26-1.85s-7-.94-10.59-1.2c-1.75-.12-3.5-.18-5.26-.24s-3.52-.08-5.28-.06c-3.77.06-7.54.19-11.31.42s-7.54.54-11.31.77c-1.38.09-2.75.16-4.13.21-2.06.06-4.13.09-6.2,0-.81,0-1.63-.07-2.44-.15a22.34,22.34,0,0,1-2.58-.41l-2.38-.5a30.4,30.4,0,0,0-3.12-.44,25.31,25.31,0,0,0-3.14,0c-1.06,0-2.11.1-3.17.19-1.94.17-3.88.38-5.81.65s-3.72.57-5.58.86-3.92.57-5.89.8-4.14.49-6.22.6c-1.62.05-3.23.05-4.84,0s-2.94-.11-4.42-.13c-3.31-.06-6.6.41-9.9.56a18.91,18.91,0,0,1-3.91-.14c-1-.29-1.9-.75-2.88-1A30.66,30.66,0,0,0,51,38.24l-1.43-.19a.81.81,0,0,0,0-.22.66.66,0,0,0-.76-.52c-1.09.08-2.19.18-3.28.25-1.58-.12-3.17-.12-4.76-.09L40,37.39c-1.81-.2-3.62-.44-5.4-.81h0c-1.16-.29-2.32-.61-3.47-.91-1.37-.38-2.76-.66-4.15-.94s-2.55-.45-3.83-.63l-2.21-.3c-.69-.09-1.37-.23-2-.38A25.69,25.69,0,0,1,14,31.62a10.1,10.1,0,0,1-1.28-.89,8,8,0,0,1-.91-1.11,10.28,10.28,0,0,1-.57-1.27,7.82,7.82,0,0,1-.3-1.5,2.41,2.41,0,0,1,.12-.66c0,.1-.05.2-.07.3l.15-.34a2.47,2.47,0,0,1,.28-.38,3.8,3.8,0,0,1,.62-.52,13.18,13.18,0,0,1,2.18-1c.48-.14,1-.27,1.46-.37a12.06,12.06,0,0,1,1.8-.18c2.84-.07,5.69-.05,8.54-.14s5.46-.37,8.18-.63,5.54-.51,8.31-.73c2.61-.22,5.22-.44,7.84-.54H50l3-.11-.36,0c1.31-.05,2.63-.09,4-.08s2.91.13,4.36.21c1.2.07,2.41.1,3.62.15,1.48.05,3,.14,4.44.23s2.75.13,4.12.14,3-.06,4.45-.14,3-.21,4.51-.32,2.77-.17,4.15-.22c3.7-.12,7.4-.27,11.1-.23s7.38.22,11.06.47c3.41.23,6.82.59,10.24.88s7,.51,10.52.83l4.29.41c2.28.22,4.57.44,6.86.63,3.54.29,7.1.37,10.64.61s6.85.54,10.29.71,7.15.22,10.73.37c1.8.08,3.6.21,5.41.31s3.67.19,5.51.25c3.69.14,7.38.11,11.06.16s7.1.19,10.64.3c3.74.11,7.47.18,11.21.25,3.53.07,7.07.18,10.6.39,3.33.19,6.67.44,10,.7,3.5.27,7,.51,10.49.77,3.68.28,7.35.61,11,.94,3.35.31,6.7.7,10,1.09q2.82.33,5.64.61c1.7.18,3.4.36,5.11.49,3.57.28,7.14.44,10.72.56l11.1.32c3.46.09,6.93.14,10.39.23s7.13.37,10.69.61q2.86.19,5.75.31c1.79.08,3.58.07,5.37.07,3.69,0,7.38-.18,11.06-.32h-.23c7.35-.24,14.7-.15,22.05-.09,3.76,0,7.53.11,11.29.24s7.53.31,11.29.42c7.43.22,14.86.06,22.29-.07,4-.07,8-.13,11.93-.25,3.56-.11,7.11-.34,10.65-.59s7.16-.52,10.74-.75c3.86-.24,7.71-.41,11.57-.56s7.66-.3,11.48-.6c3.6-.27,7.18-.67,10.78-1,7.64-.7,15.28-1.28,22.9-2.1s14.92-1.83,22.37-2.84c7.62-1,15.22-2.2,22.84-3.29,3.55-.5,7.11-1,10.67-1.5s7.27-1.16,10.9-1.81,7.48-1.32,11.24-1.87,7.25-1,10.87-1.37c7.52-.85,15.05-1.6,22.56-2.5,4-.48,8.06-1,12.1-1.31,3.82-.32,7.65-.51,11.48-.66,3.58-.1,7.17-.15,10.75-.21Zm96.5,10.87c0,.05,0,.11,0,.16s0-.11,0-.16Zm-4.1,5.65-.24.15.24-.15ZM74,18.89h0Zm-62.34,6.7-.15.17.15-.17ZM11,27v0Zm71,12.8h0Zm-12,3.29h0Zm273.48-8.84h0Zm304.89,4.08h0Z"/></g></svg>