<svg xmlns="http://www.w3.org/2000/svg" viewBox="0 0 588.26 56.68"><defs><style>.cls-1{fill:#2c2c2c;}</style></defs><title>vectors-tarot-suits</title><g id="Draw_Layer" data-name="Draw Layer"><path class="cls-1" d="M536.94,9.09c-1.53,0-3.05,0-4.59,0-2.73,0-5.47.1-8.2.2s-5.69.24-8.53.46-5.49.49-8.24.66-5.51.21-8.26.29c-2.92.08-5.84.25-8.76.45s-5.71.39-8.57.54-5.68.21-8.52.26-5.88.1-8.82.08c-2.72,0-5.44-.11-8.16-.21-5.77-.21-11.53-.44-17.29-.66-1.28-.05-2.56-.12-3.84-.14-1.54,0-3.08,0-4.62.06-3,.11-6,.26-9,.39-2.83.12-5.67.23-8.5.41-3,.18-6,.39-9,.58-5.73.36-11.46.82-17.19,1.29s-11.57.62-17.35.86c-2.85.12-5.7.24-8.55.26s-5.56-.05-8.34-.13c-5.89-.16-11.77-.41-17.66-.47-2.93,0-5.87,0-8.8-.11-2.72-.06-5.43-.09-8.15-.08s-5.25.1-7.88.22c-3.07.14-6.14.28-9.21.44-2.67.14-5.33.33-8,.55s-5.35.43-8,.57-5.35.22-8,.39c-3,.18-5.9.42-8.85.69s-5.61.55-8.41.87-5.55.69-8.33,1q-3.93.33-7.87.47c-3,.09-5.91.22-8.86.28-5.82.13-11.64-.12-17.45-.31-2.87-.09-5.74,0-8.61.12a84.3,84.3,0,0,0-8.81,1c-2.8.44-5.57,1.06-8.34,1.65s-5.54,1.09-8.33,1.49c-1.61.23-3.23.38-4.84.54l.4,0c-2.39.23-4.79.48-7.17.76s-4.72.57-7.08.82l.39-.05a82.07,82.07,0,0,1-8.3.22c-2.68,0-5.35-.12-8-.23-2.48-.1-5-.24-7.45-.45-2.8-.24-5.58-.55-8.38-.77-1.2-.09-2.4-.17-3.6-.21s-2.43,0-3.64,0-2.38.17-3.57.29-2.63.3-3.94.48c-2.8.39-5.6.82-8.39,1.23-2.62.39-5.22.86-7.81,1.36-2.2.42-4.4.83-6.63,1.09-1.87.16-3.73.25-5.6.37-2.2.13-4.4.26-6.59.49s-4.39.6-6.58.93-4.6.64-6.91.88c-1.75.16-3.51.31-5.27.44s-3.8.32-5.7.51l.19,0-.3,0-.18,0h.09c-2.8.25-5.6.4-8.41.48-1.41,0-2.82.09-4.23.19-1.72.12-3.42.4-5.12.58-1.89.17-3.78.26-5.67.44s-4,.44-6,.64-3.68.32-5.51.61l-2.92.49c-.89.15-1.79.28-2.68.49A15.06,15.06,0,0,0,15.1,37a10.66,10.66,0,0,0-2,1.22,14,14,0,0,0-1.4,1.15A10.2,10.2,0,0,0,10.46,41a12.46,12.46,0,0,0-1,1.84,4.49,4.49,0,0,0-.39,2.65,3.14,3.14,0,0,0,.61,1.44,4.08,4.08,0,0,0,1.24,1,6.66,6.66,0,0,0,2.23.65c.7.11,1.41.13,2.12.17l2.16.09a19.35,19.35,0,0,0,2.41-.09c1-.1,2-.25,3-.36,2.23-.21,4.47-.38,6.71-.44,1.39,0,2.78,0,4.17,0,1.59,0,3.17,0,4.76.07,2.82.06,5.65.23,8.48.37a74,74,0,0,1,7.73.52c1.44.27,2.85.66,4.28,1a19.74,19.74,0,0,0,4.33.47,36.75,36.75,0,0,0,5-.58c1.56-.25,3.14-.48,4.71-.65a10,10,0,0,1,1.81,0l1.44.35.68.13c.34.06.68.13,1,.18l4,.56a1.17,1.17,0,0,0,1.18-.87l2.55.34c2.68.35,5.38.57,8.09.74s5.56.41,8.34.59c5.53.36,11.09.6,16.63.75a114,114,0,0,0,17.22-1c3.78-.48,7.54-1.09,11.3-1.67,3.51-.55,7-1,10.58-1.32l-.17,0,.28,0h0c2.47-.23,4.95-.44,7.42-.61,2.85-.2,5.7-.26,8.55-.28,2.46,0,4.91,0,7.37-.06,2.88-.06,5.77-.2,8.66-.32,2.56-.11,5.13-.18,7.7-.29,2.82-.11,5.63-.27,8.45-.47,5.4-.37,10.78-1,16.17-1.55h.07l.32,0-.23,0c6-.57,12-1.12,18-1.57s11.82-.82,17.74-1.12,12.07-.57,18.1-1,12.09-.81,18.13-1.25,12.1-.82,18.16-1,11.94,0,17.9.08,11.69.17,17.54.29c6.05.12,12.1.13,18.15.16,5.81,0,11.61.15,17.42.15s11.71-.07,17.56-.15c3.06,0,6.13-.09,9.19-.17s5.86-.23,8.79-.38c6.1-.3,12.2-.63,18.3-.9l17.59-.77c2.92-.12,5.83-.25,8.75-.33s5.61-.14,8.42-.21c5.79-.14,11.57-.35,17.36-.48,3-.06,6-.1,9.05-.12,2.78,0,5.56,0,8.34-.06s5.63-.15,8.44-.2,5.5,0,8.25,0c3,0,5.91,0,8.87,0,2.72,0,5.44,0,8.17-.05a48.48,48.48,0,0,0,8-.51c1.21-.2,2.41-.47,3.61-.72s2.67-.59,4-.89c2.65-.6,5.32-1.14,8-1.73s5.17-1.1,7.76-1.62c1.14-.23,2.29-.46,3.43-.67,1.33-.24,2.66-.46,4-.73a13.46,13.46,0,0,0,1.77-.44,5.78,5.78,0,0,0,1.95-1,3.57,3.57,0,0,0,.68-.72,6.09,6.09,0,0,0,.4-.81,2.53,2.53,0,0,0,.13-.86l-.06-.59a2.81,2.81,0,0,0-.18-.56,6.39,6.39,0,0,0-2-2.25l-1-.73c-.54-.38-1.06-.79-1.59-1.18a33.8,33.8,0,0,0-3.08-2.07c-1.34-.79-2.71-1.53-4.1-2.25-1-.53-2.07-1.08-3.14-1.51a32,32,0,0,0-4.09-1.32q-3.74-.91-7.55-1.45c-2.94-.41-5.89-.75-8.86-1q-4-.28-8-.46l-2.34-.1-1.4,0ZM525.49,11.7c3.79-.17,7.58-.33,11.37-.33,1.79,0,3.58.06,5.36.12s3.36.13,5,.23c2.11.13,4.23.29,6.33.51,1.83.18,3.65.45,5.47.73,1.66.29,3.32.58,5,1,1,.25,2,.52,3,.85.83.28,1.63.6,2.43,1a63.69,63.69,0,0,1,6.75,3.66,34,34,0,0,1,2.92,2.12c.67.52,1.35,1,2,1.55A7.15,7.15,0,0,1,582,24a2.15,2.15,0,0,1,.14.26l0,.19a.49.49,0,0,1,0,.12,1.09,1.09,0,0,1,0,.17l-.09.15-.23.2a4.63,4.63,0,0,1-.58.31,24.42,24.42,0,0,1-4.15.84c-1.29.2-2.58.4-3.86.62-2.87.49-5.75,1-8.6,1.57s-6,1.18-9,1.81c-1.41.3-2.82.59-4.24.86s-2.74.52-4.12.68a77.26,77.26,0,0,1-7.76.05c-2.66-.08-5.32-.08-8-.07-3,0-5.94,0-8.92-.06-2.72-.06-5.44-.08-8.16,0s-5.62.13-8.44.16-5.82,0-8.73,0c-5.7,0-11.4.18-17.1.34s-11.62.22-17.43.4-11.81.44-17.71.68c-6.08.26-12.16.52-18.24.85-5.87.31-11.74.69-17.62.84s-11.82.19-17.73.23c-6.11,0-12.22,0-18.33,0s-12-.07-17.94-.13c-5.69,0-11.37-.22-17.05-.3-6.08-.09-12.16-.25-18.25-.28-5.88,0-11.75.25-17.61.62-6.12.39-12.23.88-18.34,1.32q-4.65.33-9.31.63c-3,.19-5.93.33-8.9.48-9.23.47-18.47.95-27.67,1.73q-7.11.62-14.22,1.3c-4.66.46-9.33,1-14,1.46-2.86.26-5.71.48-8.58.64s-5.92.3-8.88.43-6,.33-9,.44c-2.8.1-5.6.16-8.4.2-3.09,0-6.17.15-9.24.38-2.8.21-5.6.49-8.39.79s-5.82.71-8.72,1.12-5.59.89-8.38,1.3c-2.59.38-5.18.69-7.78,1s-5.11.36-7.68.46c-2.81.1-5.62,0-8.43-.11-5.26-.21-10.51-.45-15.76-.81l-3.72-.25c-1.33-.08-2.67-.11-4-.13-2.6,0-5.19-.06-7.79-.18-2.08-.1-4.14-.36-6.21-.59-1-.11-2-.26-2.93-.38a31.72,31.72,0,0,0-3.51-.1,1.17,1.17,0,0,0-1,.6c-2.19.29-4.37.67-6.56.9a24.33,24.33,0,0,1-2.56.09,17.74,17.74,0,0,1-2.41-.25c-1.17-.22-2.33-.53-3.49-.79A31.15,31.15,0,0,0,51.9,46c-1.84-.11-3.69-.14-5.53-.2-2-.06-4.07-.14-6.1-.18s-4.08.07-6.12.07c-1.78,0-3.57,0-5.35.17-1.53.13-3.06.31-4.59.48-.82.09-1.64.18-2.45.3s-1.61.24-2.41.33a21.61,21.61,0,0,1-2.9-.07c-.92-.08-1.82-.17-2.73-.31a7.83,7.83,0,0,1-1.43-.42,3.42,3.42,0,0,1-.4-.26l-.24-.25-.08-.15a1.89,1.89,0,0,0-.05-.23,5.24,5.24,0,0,1,0-.56,7.18,7.18,0,0,1,.33-.92A11.26,11.26,0,0,1,13,42.12a6.75,6.75,0,0,1,.95-.9,13.88,13.88,0,0,1,2.46-1.39,26.23,26.23,0,0,1,4.64-1c1.75-.26,3.5-.55,5.25-.74,1-.09,2-.15,3-.24,1.32-.11,2.64-.26,4-.39,1.61-.15,3.22-.27,4.84-.36,2-.12,4.07-.3,6.11-.52,2.93-.26,5.88-.24,8.82-.38s6-.51,9-.81c3.58-.33,7.15-.64,10.71-1.09,3.91-.5,7.77-1.27,11.68-1.73,3.07-.27,6.15-.4,9.22-.62,1.6-.12,3.19-.3,4.77-.56s3.21-.59,4.81-.89c3.33-.64,6.68-1.15,10-1.64s6.53-1,9.81-1.35c1.83-.16,3.65-.26,5.49-.27,1,0,2,0,3,.11,1.16.06,2.33.13,3.49.21,2.21.17,4.42.36,6.62.51s4.25.22,6.37.31,4.13.12,6.2.16c2.35.06,4.7.11,7,.05s4.74-.28,7.11-.53,4.61-.52,6.92-.75h-.08c2.46-.24,4.92-.43,7.38-.71q4-.43,7.86-1.23c2.72-.56,5.44-1.14,8.17-1.65,2.5-.46,5-.78,7.54-1.05s5-.31,7.49-.31,4.87.1,7.31.17c4.79.14,9.58.27,14.37.11l7.52-.27c2.19-.07,4.39-.16,6.58-.36,2.41-.22,4.81-.49,7.21-.79s4.66-.58,7-.82c5.5-.53,11-.95,16.51-1.18,2.64-.11,5.28-.22,7.92-.38s5.35-.4,8-.59c2.83-.21,5.67-.33,8.51-.46s5.87-.26,8.81-.35c2.76-.08,5.51-.07,8.27,0s5.43.14,8.14.19l9,.18,5.65.19,2.83.1c5.73.2,11.47.44,17.2.24,2.92-.1,5.83-.24,8.75-.36s5.95-.2,8.91-.38c5.68-.35,11.34-.92,17-1.33,2.86-.21,5.73-.38,8.6-.57s6-.4,9-.54l8.7-.37c2.88-.12,5.75-.26,8.63-.28,1,0,2,0,3,.06l1,0,3.92.13c3,.1,5.94.2,8.91.28,5.75.16,11.51.27,17.25.11,3.9-.11,7.8-.2,11.69-.4s7.85-.51,11.77-.81,7.79-.46,11.69-.62c1.79-.08,3.58-.18,5.37-.31s3.69-.33,5.53-.52c3.7-.35,7.4-.6,11.12-.76Zm44,4.07.08,0-.08,0Zm12.65,8.4a.62.62,0,0,1,0,.13.62.62,0,0,0,0-.13Zm0,.18,0,.09,0-.09Zm0,.12-.06.15h0l.06-.14Zm-.06.15h0v0Zm0,.06a.19.19,0,0,0,0,.08v-.08Zm-.36.38c-.08.05-.15.11-.23.15l.23-.15ZM175.66,27.3l-.27,0,.27,0ZM44.07,36.62h0ZM12.93,42.19l-.07.08.07-.08ZM12,43.61a.3.3,0,0,0,0,.08l0-.08Zm-.52,1.66.07.16v0a1.34,1.34,0,0,1-.07-.18Zm.07.17,0,.09,0-.07v0Zm.18.34,0,.07,0-.07Zm.23.22.1.09-.1-.09Zm7.35,1h0ZM158,47.89h0Zm64.42-3.58h0ZM58.1,32.27h.2l-.2,0Z"/></g></svg>