<svg xmlns="http://www.w3.org/2000/svg" viewBox="0 0 161.53 199.66"><defs><style>.cls-1{fill:#2c2c2c;}</style></defs><title>vectors-tarot-suits</title><g id="Draw_Layer" data-name="Draw Layer"><path class="cls-1" d="M72.82,20.64A96.72,96.72,0,0,0,59,22.33l-.6.12a.63.63,0,0,0-.27,0c-1.17.14-2.33.42-3.48.67s-2.32.56-3.48.84-2.19.61-3.26,1-2.36.73-3.51,1.18a47.37,47.37,0,0,0-6.63,3.06,33.84,33.84,0,0,0-6.09,4.47,25,25,0,0,0-2.36,2.57,20.36,20.36,0,0,0-2.19,3.33,15.82,15.82,0,0,0-1.76,7.2A14,14,0,0,0,25.85,50,19.16,19.16,0,0,0,27,53.21a21.31,21.31,0,0,0,4.29,5.94,31.94,31.94,0,0,0,4,3.4A33.27,33.27,0,0,0,40,65.31a72.87,72.87,0,0,0,10.49,4.25l.19.06a89.5,89.5,0,0,0,15.72,3.14c1.27.15,2.54.23,3.81.32s2.7.17,4.06.21a52.51,52.51,0,0,0,8-.28l-.17,0q3.8-.3,7.56-.87c2.3-.34,4.58-.79,6.85-1.26a74.89,74.89,0,0,0,13-3.8,43.59,43.59,0,0,0,12.65-7.36,25.39,25.39,0,0,0,4.49-5.16A15.37,15.37,0,0,0,129.15,48c0-.38.08-.76.1-1.14,0-.15,0-.29,0-.44a1.62,1.62,0,0,0-.15-.69,18.44,18.44,0,0,0-.28-2.34c-.08-.4-.18-.78-.29-1.16a3,3,0,0,0-.19-.53,3.19,3.19,0,0,0-.3-.68c-.24-.57-.5-1.12-.77-1.67l-.07-.11a15.23,15.23,0,0,0-1-1.63h0a1.33,1.33,0,0,0-.23-.3l0-.07a21.46,21.46,0,0,0-2.19-2.48c-.78-.74-1.59-1.46-2.42-2.15A36.51,36.51,0,0,0,115.84,29a54.76,54.76,0,0,0-6.56-3,71.83,71.83,0,0,0-6.87-2.29A90.93,90.93,0,0,0,87.87,21a94.38,94.38,0,0,0-9.79-.49c-1.76,0-3.51,0-5.26.13Zm17.71,2.5h-.09A74.48,74.48,0,0,1,109.07,28L109,28l.13.06.11,0h0a45.85,45.85,0,0,1,9.56,5.49c.71.55,1.39,1.12,2,1.73a20.19,20.19,0,0,1,2.94,3.62c0,.05,0,.09.07.13.35.57.68,1.14,1,1.73l0,.05c0,.11.1.22.16.33l0,.06c.13.3.24.61.35.92a7.77,7.77,0,0,0,.24,1,11.85,11.85,0,0,1,.34,1.57c0,.38.07.76.08,1.14A1.87,1.87,0,0,0,126,46a3.11,3.11,0,0,0-.07.67c0,.25,0,.5-.06.74a15.77,15.77,0,0,1-.88,3.25A17.2,17.2,0,0,1,123,54a26.6,26.6,0,0,1-4.42,4.26,44.19,44.19,0,0,1-9.34,5.3A68.71,68.71,0,0,1,93.54,68l-1.21.16c-2.28.3-4.58.45-6.87.56l-1.79.06c-.59,0-1.18.06-1.77,0h-.74c-.29,0-.59,0-.88,0-.62,0-1.23,0-1.85,0-1.18,0-2.37,0-3.55-.06s-2.39-.09-3.58-.17-2.25-.18-3.37-.31-2.24-.24-3.36-.39A82.58,82.58,0,0,1,51.94,65l-.11,0c-1.79-.55-3.56-1.17-5.3-1.88a47.24,47.24,0,0,1-9.74-5.62l-.24-.19c-.62-.49-1.2-1-1.82-1.51l.33.25a21.09,21.09,0,0,1-2.38-2.53,17.1,17.1,0,0,1-1.93-3.17,14.51,14.51,0,0,1-.81-3,14.19,14.19,0,0,1,0-2.84,15.19,15.19,0,0,1,.8-2.9,18,18,0,0,1,2-3.33,27.84,27.84,0,0,1,4.39-4.29,53.74,53.74,0,0,1,11.4-6.54c1.52-.6,3.05-1.17,4.61-1.68.81-.26,1.63-.5,2.45-.74s1.92-.46,2.86-.75a1,1,0,0,0,.31-.16q2.82-.6,5.69-1a102.48,102.48,0,0,1,26.13.06Zm-26.25-.05h0Zm58.44,14.33.12.16-.12-.16Zm5.4,3.79c0,.06,0,.12.08.19s0-.13-.08-.19ZM36.59,57.27l.15.11-.15-.11Zm.24.18.27.21-.27-.21Zm72.38-29.39-.07,0-.07,0,.14.06ZM90.44,23.13l-.16,0,.16,0Z"/><path class="cls-1" d="M28.36,36.86c-1.11,1.22-2.15,2.5-3.14,3.82a11.73,11.73,0,0,0-.83,1.13c-.31.43-.6.88-.88,1.34-.44.71-.87,1.43-1.27,2.16l0,.09c-.47.83-.92,1.68-1.34,2.54l0,0c0,.09-.08.17-.13.26s0,.07,0,.11l-.09.18a1,1,0,0,0-.11.17c-.43.91-.84,1.82-1.22,2.75l-.06.15-.05.12A1.89,1.89,0,0,0,19,52L19,52.1l-.1.24c-.09.24-.18.48-.28.72-.22.43-.37.91-.56,1.36s-.26.67-.37,1a1.18,1.18,0,0,0-.12.33l-.15.5a1.31,1.31,0,0,0-.09.28c-.22.82-.45,1.65-.65,2.48a1,1,0,0,0-.09.27c0,.08,0,.16-.05.23s0,.12-.05.17l-.12.65a.83.83,0,0,0,0,.15c-.22,1.26-.42,2.52-.56,3.79-.1.76-.15,1.53-.2,2.29a1.49,1.49,0,0,0-.07.55l0,.89a2.22,2.22,0,0,0,0,.37v.84c0,.88.07,1.77.12,2.65a2.11,2.11,0,0,0,0,.25h0v0a1.41,1.41,0,0,0,0,.28.41.41,0,0,0,0,.11h0a2.71,2.71,0,0,0,0,.4c.12,1.14.27,2.28.46,3.41v0a39.94,39.94,0,0,0,3.14,10.35,37.3,37.3,0,0,0,2.4,4.61c.94,1.54,1.89,3.06,3,4.5a2.85,2.85,0,0,0,.25.33A63,63,0,0,0,30.9,103l-.31-.41a5,5,0,0,0,.55.65L32,104c.43.42.88.82,1.33,1.22,1,.87,2,1.68,3,2.48a61.38,61.38,0,0,0,5.72,3.84l.08,0q1.69,1,3.45,1.92c1.37.71,2.76,1.35,4.19,1.94l.1,0,.39.16.06,0c.94.38,1.9.74,2.86,1.09l.16.06,1.46.51.07,0c1.22.4,2.44.75,3.67,1.08l.07,0,.17,0c1.2.32,2.42.62,3.65.85a2.44,2.44,0,0,0,.46.07c1.45.24,2.9.4,4.36.57,1.61.18,3.23.32,4.84.43.83.07,1.67.1,2.5.13s1.84.06,2.76,0c1.8-.08,3.61-.16,5.41-.33a80.22,80.22,0,0,0,10.55-1.71c1.67-.39,3.32-.87,5-1.4.73-.24,1.46-.49,2.18-.76.38-.13.75-.27,1.13-.42a8.18,8.18,0,0,0,.82-.32c1.51-.61,3-1.24,4.48-2l.11-.06a67.92,67.92,0,0,0,7.19-4.18l.09-.07c.9-.59,1.81-1.2,2.66-1.88l.15-.12.06,0,.09-.08,1-.78h0c1.06-.84,2.07-1.74,3.08-2.64s1.89-1.75,2.79-2.68l.06-.06.06-.07a52,52,0,0,0,9.07-12.61l0,0,0-.08a47.31,47.31,0,0,0,3.38-8.89v0l.06-.23a.64.64,0,0,0,0-.07,45.46,45.46,0,0,0,1.31-10.65,44.28,44.28,0,0,0-1.41-11,44.73,44.73,0,0,0-4.34-10.8A55.05,55.05,0,0,0,126,37.45a.77.77,0,1,0-1.09,1.09c.61.71,1.2,1.43,1.78,2.18l-.09-.12a38.93,38.93,0,0,1,3.27,4.79c.45.81.91,1.63,1.33,2.47s.9,1.88,1.31,2.85l0-.05a42.88,42.88,0,0,1,3.08,22.51,45.76,45.76,0,0,1-1,5.19.24.24,0,0,1,0,.08,45.2,45.2,0,0,1-2.05,6.18c-.36.85-.74,1.69-1.15,2.51l0,.06a50.11,50.11,0,0,1-4.94,7.91,54.27,54.27,0,0,1-3.8,4.35h0a47.92,47.92,0,0,1-4.55,4.12l.23-.17-1.38,1-.12.08c-.34.25-.68.5-1,.74l-.1.06c-.91.59-1.78,1.22-2.69,1.81l-.06,0a61.87,61.87,0,0,1-7.28,3.88l-.19.08-1.42.62.09,0-.2.08-.15.06.1,0c-.82.34-1.63.67-2.46,1l-.21.08-.85.31-1.76.58c-1.27.4-2.56.76-3.86,1.1A66.55,66.55,0,0,1,87,116.38a65.12,65.12,0,0,1-8.72.53,75.57,75.57,0,0,1-8.89-.5c-.93-.13-1.86-.29-2.79-.47s-1.9-.42-2.84-.64a.83.83,0,0,0-.21-.06c-1.27-.3-2.54-.59-3.81-.92l-.08,0c-1.31-.36-2.6-.76-3.89-1.19l-.07,0-1.23-.43-.06,0c-.81-.29-1.6-.6-2.39-.93l-.1,0-.43-.18a2.12,2.12,0,0,0-.48-.23,71.61,71.61,0,0,1-6.95-3.49l-.07,0a61.55,61.55,0,0,1-6-4.09c-.53-.42-1-.86-1.58-1.25s-.88-.74-1.31-1.12l-.86-.74c-.16-.16-.32-.31-.49-.45l0,0a45.36,45.36,0,0,1-4.13-4.52l-.27-.36,0,0,0,0L29.21,95c-.34-.44-.67-.89-1-1.34a.1.1,0,0,1,0,0,43.06,43.06,0,0,1-3.07-4.77c-.84-1.57-1.62-3.17-2.32-4.81a48.48,48.48,0,0,1-3.08-11.14c0-.13,0-.27-.05-.4s-.05-.37-.07-.55l0-.06c0-.11,0-.23,0-.34a1,1,0,0,0,0-.1c-.07-.76-.13-1.51-.15-2.26,0,0,0-.08,0-.12s0-.2,0-.3a1.27,1.27,0,0,0,0-.2v-.22a2.66,2.66,0,0,0,0-.28c0-.33,0-.65,0-1a1.6,1.6,0,0,0-.05-.39V66c0-.5.07-1,.06-1.5s.07-1,.11-1.49.08-.9.13-1.35a2,2,0,0,0,0-.24l.06-.45h0c0-.12,0-.24.05-.35a1.75,1.75,0,0,0,0-.32l0-.09a3.34,3.34,0,0,0,.05-.43c.13-.81.28-1.6.47-2.39l0-.17c.05-.21.11-.41.16-.62a1.85,1.85,0,0,0,0-.23,33.46,33.46,0,0,1,.9-3.3.83.83,0,0,0,0-.15l.09-.23a1.36,1.36,0,0,0,0-.17l.09-.22a.43.43,0,0,0,0,0c.19-.47.37-.94.57-1.41.12-.29.25-.58.38-.86,0-.1.07-.19.1-.28s.15-.31.23-.47l0,0c.42-.86.86-1.7,1.33-2.53l.06-.09c.57-1,1.17-1.9,1.79-2.83.76-1.14,1.53-2.26,2.37-3.34l-.19.25c.55-.71,1.12-1.42,1.69-2.11a1.19,1.19,0,0,0,.34-.82,1.17,1.17,0,0,0-.34-.82,1.19,1.19,0,0,0-.83-.33,1.09,1.09,0,0,0-.8.33Zm104.2,13.91,0,.09a.36.36,0,0,0,0-.09ZM19.72,73.06l0,.18,0-.18Zm10,22.7a1.83,1.83,0,0,1,.13.16l-.13-.16ZM38,103.69l.17.14-.17-.14Zm14,8h0Zm51.8.1,0,0,.11,0-.16.07Z"/><path class="cls-1" d="M98,114.64a1.72,1.72,0,0,0,.41,3.14l1.75.55c.47.15.92.35,1.38.53,1,.38,1.91.74,2.86,1.13.62.27,1.23.54,1.85.79a2.17,2.17,0,0,0,.35.15l.06,0,.13.05c.4.19.78.39,1.19.56l1.19.49h0l.26.11.13,0,.16.06.19,0,.79.28.36.16-.09,0,.48.23.31.14.3.13.18.08,0,0a2.71,2.71,0,0,0,.63.24l.25.11.68.32h0l-.15-.07.48.27.16.08.1.06.19.1.06,0,.09.05.16.09.2.1c.67.39,1.33.79,2,1.23l.1.06,1.24.86.47.34.21.14.53.39a22.5,22.5,0,0,1,2.9,2.79l.07.1c.1.11.19.23.28.34l.12.16a22.6,22.6,0,0,1,2.37,4,1.8,1.8,0,0,1,.08.21c.07.17.13.38.22.55a8.34,8.34,0,0,1,.26.85,7.91,7.91,0,0,1,.19.81l.06.19c.06.22.1.45.14.68v.09c0,.37,0,.75.06,1.13a1.1,1.1,0,0,0,0,.36,8.82,8.82,0,0,1,0,.89v0c0,.07,0,.14,0,.21a15,15,0,0,1-.88,3.15,18.75,18.75,0,0,1-2.18,3.65,27.27,27.27,0,0,1-4.6,4.51,39.85,39.85,0,0,1-5.24,3.26c-.37.17-.74.37-1.1.55-.55.27-1.09.52-1.64.76a10.67,10.67,0,0,0-1.11.44c-.69.28-1.39.55-2.09.8-1.26.43-2.53.84-3.81,1.21-2,.6-4.08,1.08-6.15,1.52l-.21,0c-2.06.41-4.13.8-6.22,1.09a98.5,98.5,0,0,1-11.77.85,92.25,92.25,0,0,1-13.07-.85,75,75,0,0,1-18.08-4.84A46.36,46.36,0,0,1,38.93,152a30.33,30.33,0,0,1-4.7-4.64l-.39-.52h0c-.22-.3-.44-.61-.64-.93s-.39-.74-.63-1.08-.3-.58-.43-.88a16.5,16.5,0,0,1-1-3.37c0-.16,0-.32-.05-.48s-.06-.46-.06-.68c0-.68,0-1.34.07-2a15.06,15.06,0,0,1,.88-3.17,19.47,19.47,0,0,1,2.27-3.9A28.32,28.32,0,0,1,39,125.67l0,0,.07,0,0,0,0,0,.44-.34a.6.6,0,0,0,.08-.08,42.34,42.34,0,0,1,8.74-4.83l-.25.1a68.29,68.29,0,0,1,12.42-3.81,1,1,0,0,0-.52-1.89,73.16,73.16,0,0,0-11.25,3.27c-1.92.75-3.81,1.58-5.65,2.52a52.24,52.24,0,0,0-5,2.92h0c-.9.58-1.75,1.25-2.6,1.92a24.83,24.83,0,0,0-2.39,2.21,20.21,20.21,0,0,0-3.8,5.31,17,17,0,0,0-1.2,3.38,21.5,21.5,0,0,0-.45,3.49,9.37,9.37,0,0,0,.1,1.67,15.79,15.79,0,0,0,.27,1.79,16.66,16.66,0,0,0,1.14,3.22,2.18,2.18,0,0,0,.17.39c.13.27.27.53.41.78.21.4.44.79.67,1.17a20.38,20.38,0,0,0,2.15,2.82,30.75,30.75,0,0,0,5.29,4.57,50.64,50.64,0,0,0,12.64,6.3,72.84,72.84,0,0,0,12.93,3.16c2.33.37,4.66.66,7,.87s4.85.27,7.27.29a95.54,95.54,0,0,0,10.43-.44,75.83,75.83,0,0,0,10.38-1.68l.18-.05a62.74,62.74,0,0,0,10.75-3.57l-.29.12A48.59,48.59,0,0,0,122,153.49a23.92,23.92,0,0,0,4.8-5.53,18.41,18.41,0,0,0,1.74-3.67,15.43,15.43,0,0,0,.73-3.23l0-.21.09-.77a1.27,1.27,0,0,0,.07-.48h0a4.71,4.71,0,0,0,0-.53c0-.24,0-.49,0-.72a9.82,9.82,0,0,0-.06-1.09,2.41,2.41,0,0,0-.06-.59c0-.27-.09-.55-.14-.82s-.16-.71-.26-1.06a6.71,6.71,0,0,0-.51-1.59,19.73,19.73,0,0,0-.83-1.81,19.35,19.35,0,0,0-2.28-3.32l-.09-.1c-.52-.61-1-1.21-1.6-1.79s-1.22-1.2-1.85-1.79a1.37,1.37,0,0,0-.17-.17l-.61-.51c-.45-.39-.93-.75-1.42-1.1l-.28-.22-.39-.27c-.47-.35-1-.67-1.45-1a1.51,1.51,0,0,0-.26-.18l-.11-.07-.14-.09-.08-.05-.15-.09a1.38,1.38,0,0,0-.25-.17c-.45-.26-.88-.54-1.32-.81a1.47,1.47,0,0,0-.44-.31l-.15-.07-.11-.07h0l-.24-.15-.07,0-.2-.12-1.1-.55c-.29-.14-.57-.31-.86-.46a2.43,2.43,0,0,0-.54-.31,3.61,3.61,0,0,0-.49-.21l-.36-.15h0l0,0-.44-.19.6.26c-.44-.19-.87-.37-1.31-.54a4.47,4.47,0,0,1-.63-.16l-.42-.14-.08,0-.31-.11a.83.83,0,0,0-.21-.06c-1-.33-2.07-.57-3.11-.81s-2.16-.44-3.26-.59l.13,0q-1-.21-2.1-.39a2.81,2.81,0,0,0-.49,0,1.63,1.63,0,0,0-.84.22Zm9,6.44h0Zm16.59,26.58-.08.1.08-.1ZM66.41,162.08l.5.07-.5-.07Zm43-1,.11,0-.11,0ZM39,125.64l0,0,0,0Z"/><path class="cls-1" d="M86.57,118.28a1.21,1.21,0,0,0-.43,1.65,41.38,41.38,0,0,0,6.06,8.18l.07.08A24,24,0,0,0,94.13,130l.07.06a3.68,3.68,0,0,0,.39.3l.14.1A24,24,0,0,0,97,132a27.86,27.86,0,0,0,3,1.55,1.06,1.06,0,0,0,.74.1,1,1,0,0,0,.23-1.75c-.35-.2-.69-.42-1-.63s-.8-.52-1.17-.8l.23.18c-.48-.37-1-.72-1.43-1.09s-.84-.68-1.25-1l-.08-.07-.07-.06a.46.46,0,0,0-.07-.07,1.8,1.8,0,0,0-.2-.19h0c-.63-.58-1.29-1.12-1.9-1.73l-.07-.06a34.18,34.18,0,0,1-2.76-3.12,40.41,40.41,0,0,1-3-4.54,1.19,1.19,0,0,0-1-.59,1.15,1.15,0,0,0-.6.16Zm11.17,11.41.07.06-.07-.06Z"/><path class="cls-1" d="M67.32,116.73a35.85,35.85,0,0,1-3.48,5.71c-.11.15-.22.3-.34.44-.64.81-1.31,1.61-2,2.37s-1.41,1.51-2.17,2.19l-.05,0c-.47.4-.95.77-1.42,1.15l-.35.26,0,0c-.76.52-1.56,1-2.36,1.43a30.09,30.09,0,0,1-3.41,1.7h0a1.12,1.12,0,0,0-.63.48,1.09,1.09,0,0,0-.11.81,1.08,1.08,0,0,0,1.31.73,23,23,0,0,0,2.29-.81l-.08,0a14.16,14.16,0,0,0,3.57-2l.66-.47h0c.75-.54,1.48-1.11,2.18-1.72a.27.27,0,0,0,.08-.07c.38-.32.75-.63,1.11-1s.86-.83,1.27-1.27A31.76,31.76,0,0,0,65.6,124c.63-.85,1.21-1.74,1.77-2.63.7-1.15,1.36-2.32,2-3.53a1.22,1.22,0,0,0,.11-.88,1.13,1.13,0,0,0-.53-.68,1.2,1.2,0,0,0-.59-.15,1.11,1.11,0,0,0-1,.56Zm-3.83,6.17-.16.21.16-.21ZM51.87,132l-.18.07.18-.07Zm2.66,1.29.2-.09-.2.09Z"/><path class="cls-1" d="M74.4,35.81c-3.41.21-6.79.59-10.16,1.11a77.68,77.68,0,0,0-10.32,2.31A56.58,56.58,0,0,0,48,41.36l0,0-.25.11h0A45.25,45.25,0,0,0,35.12,49.1a1,1,0,0,0,0,1.45,1,1,0,0,0,1.45,0c.6-.54,1.22-1,1.86-1.55l-.21.16a42.14,42.14,0,0,1,9.2-5.26,72.13,72.13,0,0,1,9.15-3,79,79,0,0,1,9.85-2l-.31.05c2-.28,4.08-.46,6.13-.58,2.21-.13,4.43-.18,6.64-.15,2,0,4,.09,6,.24s4.18.35,6.27.62l-.37,0c1.09.14,2.17.31,3.24.49l.08,0c.77.14,1.53.29,2.29.45l.12,0a74.38,74.38,0,0,1,13.14,4c1.08.46,2.15.94,3.21,1.46l.19.08c.91.45,1.81.93,2.68,1.45l.09,0c.68.4,1.36.81,2,1.26l.89.61a8.54,8.54,0,0,0,1,.73l-.09,0,.57.42-.18-.14.43.33c.48.4.94.82,1.4,1.23.69.61,1.25,1.35,1.91,2a1.14,1.14,0,0,0,1.37.17,1.12,1.12,0,0,0,.41-1.54,10.22,10.22,0,0,0-1.23-1.55c-.34-.38-.71-.76-1.08-1.13-.64-.64-1.31-1.25-2-1.84h0a7.19,7.19,0,0,0-.92-.75c-.34-.25-.67-.51-1-.75-.67-.47-1.35-.93-2-1.36l-.15-.11c-.88-.53-1.78-1-2.69-1.52l-.14-.09a58.34,58.34,0,0,0-7.92-3.31,68.89,68.89,0,0,0-9.14-2.36l-.19,0c-.75-.14-1.49-.27-2.24-.39a1.06,1.06,0,0,0-.31,0,86.64,86.64,0,0,0-9.64-1.07c-1.79-.09-3.58-.15-5.37-.15s-3.41.05-5.11.16Zm46.17,14.5.13.09-.13-.09Zm-.24-.19-.08-.06.08.06Z"/><path class="cls-1" d="M38.63,46.25c-.78.5-1.51,1.06-2.24,1.63s-1.4,1.15-2,1.78a24.1,24.1,0,0,0-3.41,4.12,1.14,1.14,0,1,0,2,1.15c.27-.41.55-.82.85-1.21l-.09.11.13-.17.05-.06,0,0A28,28,0,0,1,38.62,49l1.12-.84a1.17,1.17,0,0,0,.5-.65,1.1,1.1,0,0,0-.11-.85,1.15,1.15,0,0,0-1-.54,1,1,0,0,0-.54.15Zm-.12,2.81-.09.07.09-.07Zm-4.72,4.6,0,.06,0-.07Z"/><path class="cls-1" d="M123.46,52.66a1.16,1.16,0,1,0,1.15-1.16,1.16,1.16,0,0,0-1.15,1.16Z"/></g></svg>