<svg xmlns="http://www.w3.org/2000/svg" viewBox="0 0 171.57 238.98"><defs><style>.cls-1{fill:#2c2c2c;}.cls-2{fill:none;stroke:#2c2c2c;stroke-miterlimit:10;stroke-width:2px;}</style></defs><title>vectors-tarot-suits</title><g id="Draw_Layer" data-name="Draw Layer"><polygon class="cls-1" points="29.3 170.09 29.3 170.09 29.3 170.09 29.3 170.09 29.3 170.09"/><polygon class="cls-1" points="29.3 170.09 29.3 170.09 29.3 170.09 29.3 170.09 29.3 170.09"/><path class="cls-1" d="M29.32,170.13l0,0,0,0Z"/><path class="cls-1" d="M87.09,218.51l.64-.09-.64.09Z"/><path class="cls-1" d="M29.32,170.14v0Z"/><path class="cls-1" d="M29,68.07a.14.14,0,0,0,0,.06,1.22,1.22,0,0,1,.07-.17Z"/><path class="cls-1" d="M153.69,102.1a138.08,138.08,0,0,0-3.39-18.72A125.67,125.67,0,0,0,144.86,67a107.35,107.35,0,0,0-7.69-15.49c-6.43-10.66-15-20.21-25.81-26.61a57.12,57.12,0,0,0-8.56-4.12,36,36,0,0,0-7.63-2.11c-1.33-.25-5.93-.57-7.28-.7h-.43a.15.15,0,0,1,0-.07L75,17.74,65.23,19c-.12.07-5.68,1.72-5.8,1.79-2.34,1.23-4,1.67-6.26,3.13a61.14,61.14,0,0,0-6.4,4.62h0a.89.89,0,0,1-.39.29q-2.5,1.84-4.83,3.9c-1.74,1.56-3.44,3.18-5,4.89A91.41,91.41,0,0,0,27.63,49l.24-.32c-.54.7-1,1.45-1.48,2.19s-.95,1.5-1.41,2.27c-.86,1.46-1.69,2.93-2.48,4.44-1.6,3.09-3.05,6.24-4.4,9.44l0,0c-1.14,2.67-2.13,5.4-3,8.16s-1.67,5.39-2.38,8.13a156.71,156.71,0,0,0-3.44,18.24,128.93,128.93,0,0,0-1.14,17.34A156.85,156.85,0,0,0,9,135a140.46,140.46,0,0,0,2.5,15.52,127.3,127.3,0,0,0,4.35,15.08,124.87,124.87,0,0,0,5.76,13.53,98.76,98.76,0,0,0,6.64,11.4,1.46,1.46,0,0,0,.17.24c1.22,1.77,2.5,3.51,3.84,5.19s2.79,3.34,4.28,4.93a1.55,1.55,0,0,0,.23.21c1,1,2,2,3,3,1.26,1.15,2.57,2.24,3.9,3.31s2.62,2,4,3,2.91,2,4.41,2.86a48.79,48.79,0,0,0,9,4.26c1.13.4,2.28.74,3.45,1l.53.08a12.43,12.43,0,0,1,1.38.11,11.55,11.55,0,0,1,1.2.19l2.34.22c.3,0,6.62-.41,11-.67,1.46.12,2.92.19,4.38.19l2.76-.31a10.24,10.24,0,0,1,2.11-.31l1.13-.19a10.21,10.21,0,0,1,1.62-.29l.61-.11a11.79,11.79,0,0,1,1.29-.26c1.55-.31,3.08-.66,4.61-1s2.85-.75,4.26-1.17l1.24-.51a61,61,0,0,0,15.46-9.8,79.73,79.73,0,0,0,12.39-13.56A98.43,98.43,0,0,0,142.38,175,125.76,125.76,0,0,0,153,139.42,143.92,143.92,0,0,0,153.69,102.1Zm-88.5,113a61.43,61.43,0,0,1-6-2.18,54.24,54.24,0,0,1-5.66-2.82A51.64,51.64,0,0,1,48,206.38a58.87,58.87,0,0,1-4.53-4q-2-2-3.93-4.08l-.19-.23c-1.21-1.36-2.38-2.77-3.52-4.2-.22-.32-.47-.61-.71-.92L34,191.44c-.7-1-1.38-1.93-2-2.92a.41.41,0,0,0-.05-.09c-1.7-2.55-3.3-5.17-4.77-7.85-1.58-2.89-3-5.88-4.3-8.9-1-2.38-2-4.76-2.77-7.21-.47-1.41-.94-2.82-1.39-4.24s-.9-3.08-1.32-4.64A140.89,140.89,0,0,1,13.77,138a145.28,145.28,0,0,1-1.29-19.33A165.7,165.7,0,0,1,13.78,98s0,0,0,.06,0-.06,0-.09h0a.06.06,0,0,0,0,0l0-.15a130.17,130.17,0,0,1,8.84-32.29A110,110,0,0,1,28,54.5c1-1.84,2.09-3.66,3.24-5.43s2.3-3.41,3.54-5.06c.48-.62,1-1.23,1.46-1.84l.85-1c.28-.33.57-.64.83-1h0Q39,39,40.15,37.75c.33-.36.68-.72,1-1.07s1-.92,1.42-1.42l.5-.47.69-.64,1.12-1c.93-.81,1.88-1.61,2.85-2.37A56.29,56.29,0,0,1,60,23.55c1.17-.48,2.35-.94,3.54-1.34l.79-.25a57.89,57.89,0,0,0-6.74,3.57A66.18,66.18,0,0,0,50.08,31a71,71,0,0,0-6.7,6.39C34.81,46.6,28.54,57.77,24.05,69.49A133.66,133.66,0,0,0,16,106.32a145,145,0,0,0,1.91,37.89,120.9,120.9,0,0,0,11.93,34.9,95.3,95.3,0,0,0,10.34,15.58,80.2,80.2,0,0,0,6.22,6.81,73.11,73.11,0,0,0,6.7,5.73,58.15,58.15,0,0,0,14.66,8.19A11,11,0,0,1,65.19,215.1Zm84.34-77.72a129.7,129.7,0,0,1-8.71,32.45,100.76,100.76,0,0,1-12.24,21.26,74.68,74.68,0,0,1-13.07,13.28,59,59,0,0,1-12.31,7.29A50.71,50.71,0,0,1,90.94,215a48.43,48.43,0,0,1-12,0,50.05,50.05,0,0,1-12.36-3.4,57.4,57.4,0,0,1-12.15-7.18,73.67,73.67,0,0,1-12.65-12.8,100.27,100.27,0,0,1-12.41-21.5l0,0,0,0h0a130.45,130.45,0,0,1-8.79-32.53,144.13,144.13,0,0,1,0-37.75A128.17,128.17,0,0,1,29,68.13l-.05.11a1.22,1.22,0,0,1,.07-.17l.1-.25-.05.14A100.94,100.94,0,0,1,41.72,46,75.45,75.45,0,0,1,54.6,32.94a58.9,58.9,0,0,1,12.5-7.38,50.41,50.41,0,0,1,12-3.29,48.35,48.35,0,0,1,12,0A50.87,50.87,0,0,1,103,25.53,59.78,59.78,0,0,1,115.53,33a77,77,0,0,1,12.95,13.13,101.45,101.45,0,0,1,12.39,21.28,128.52,128.52,0,0,1,8.62,31.94A146.14,146.14,0,0,1,149.53,137.38Z"/><path class="cls-1" d="M38,40.13a0,0,0,0,0,0,0Z"/><path class="cls-1" d="M13.78,97.91v0Z"/><path class="cls-1" d="M71,21.06h0l.15,0-.12,0Z"/><line class="cls-2" x1="53.37" y1="66.81" x2="95.5" y2="184.77"/><line class="cls-2" x1="133.48" y1="124.51" x2="53.37" y2="67.32"/><line class="cls-2" x1="46.47" y1="148" x2="108.28" y2="52.51"/><line class="cls-2" x1="46.47" y1="148" x2="133.83" y2="124"/><line class="cls-2" x1="95.5" y1="184.26" x2="108.28" y2="53.02"/></g></svg>